<mxfile host="app.diagrams.net" agent="Mozilla/5.0 (Windows NT 10.0; Win64; x64) AppleWebKit/537.36 (KHTML, like Gecko) Chrome/132.0.0.0 Safari/537.36 OPR/117.0.0.0" version="26.2.2">
  <diagram name="Page-1" id="7a6c530e-6e37-e111-ec74-82921da8cc10">
    <mxGraphModel dx="2768" dy="1572" grid="0" gridSize="10" guides="1" tooltips="1" connect="1" arrows="1" fold="1" page="1" pageScale="1.5" pageWidth="1169" pageHeight="826" background="#184380" math="0" shadow="0">
      <root>
        <mxCell id="0" style=";html=1;" />
        <mxCell id="1" style=";html=1;" parent="0" />
        <mxCell id="2FV92E6_kj3xv08Foaql-3" value="S3 Bucket with objects&lt;div&gt;&lt;br&gt;&lt;/div&gt;" style="sketch=0;outlineConnect=0;fontColor=#000000;gradientColor=none;fillColor=#7AA116;strokeColor=none;dashed=0;verticalLabelPosition=bottom;verticalAlign=top;align=center;html=1;fontSize=30;fontStyle=0;aspect=fixed;pointerEvents=1;shape=mxgraph.aws4.bucket_with_objects;" vertex="1" parent="1">
          <mxGeometry x="650" y="160" width="125" height="130" as="geometry" />
        </mxCell>
        <mxCell id="2FV92E6_kj3xv08Foaql-4" value="MongoDB" style="points=[];aspect=fixed;html=1;align=center;shadow=0;dashed=0;fillColor=#FF6A00;strokeColor=none;shape=mxgraph.alibaba_cloud.mongodb;fontSize=31;verticalAlign=top;labelPosition=center;verticalLabelPosition=bottom;" vertex="1" parent="1">
          <mxGeometry x="637" y="548" width="161" height="161" as="geometry" />
        </mxCell>
        <mxCell id="2FV92E6_kj3xv08Foaql-5" value="EC2 Instanz" style="outlineConnect=0;dashed=0;verticalLabelPosition=bottom;verticalAlign=top;align=center;html=1;shape=mxgraph.aws3.ec2;fillColor=#F58534;gradientColor=none;fontSize=30;" vertex="1" parent="1">
          <mxGeometry x="86" y="413" width="147" height="167" as="geometry" />
        </mxCell>
        <mxCell id="2FV92E6_kj3xv08Foaql-6" value="Cloudfront&lt;div&gt;&lt;br&gt;&lt;/div&gt;" style="outlineConnect=0;dashed=0;verticalLabelPosition=bottom;verticalAlign=top;align=center;html=1;shape=mxgraph.aws3.cloudfront;fillColor=#F58536;gradientColor=none;fontSize=30;" vertex="1" parent="1">
          <mxGeometry x="1158" y="290" width="163" height="153" as="geometry" />
        </mxCell>
        <mxCell id="2FV92E6_kj3xv08Foaql-7" value="&lt;font style=&quot;font-size: 30px;&quot;&gt;Elastic Block Store&lt;/font&gt;&lt;div&gt;&lt;br&gt;&lt;/div&gt;" style="sketch=0;points=[[0,0,0],[0.25,0,0],[0.5,0,0],[0.75,0,0],[1,0,0],[0,1,0],[0.25,1,0],[0.5,1,0],[0.75,1,0],[1,1,0],[0,0.25,0],[0,0.5,0],[0,0.75,0],[1,0.25,0],[1,0.5,0],[1,0.75,0]];outlineConnect=0;fontColor=#000000;fillColor=#7AA116;strokeColor=#ffffff;dashed=0;verticalLabelPosition=bottom;verticalAlign=top;align=center;html=1;fontSize=12;fontStyle=0;aspect=fixed;shape=mxgraph.aws4.resourceIcon;resIcon=mxgraph.aws4.elastic_block_store;" vertex="1" parent="1">
          <mxGeometry x="657" y="956" width="138" height="138" as="geometry" />
        </mxCell>
        <mxCell id="2FV92E6_kj3xv08Foaql-10" value="&lt;div&gt;&lt;br&gt;&lt;/div&gt;" style="text;html=1;align=center;verticalAlign=middle;resizable=0;points=[];autosize=1;strokeColor=none;fillColor=none;fontSize=15;" vertex="1" parent="1">
          <mxGeometry x="262" y="805" width="18" height="30" as="geometry" />
        </mxCell>
        <mxCell id="2FV92E6_kj3xv08Foaql-11" value="Elastic IP&lt;div&gt;&lt;br&gt;&lt;/div&gt;" style="outlineConnect=0;dashed=0;verticalLabelPosition=bottom;verticalAlign=top;align=center;html=1;shape=mxgraph.aws3.elastic_ip;fillColor=#F58534;gradientColor=none;fontSize=30;labelPosition=center;" vertex="1" parent="1">
          <mxGeometry x="343" y="502" width="139" height="53" as="geometry" />
        </mxCell>
        <mxCell id="2FV92E6_kj3xv08Foaql-16" value="User" style="image;points=[];aspect=fixed;html=1;align=center;shadow=0;dashed=0;image=img/lib/allied_telesis/computer_and_terminals/Personal_Computer.svg;fontSize=30;labelBackgroundColor=none;" vertex="1" parent="1">
          <mxGeometry x="1366" y="768" width="193.32" height="262" as="geometry" />
        </mxCell>
      </root>
    </mxGraphModel>
  </diagram>
</mxfile>
